<?xml version="1.0" encoding="iso-8859-1"?>
<!-- Generator: Adobe Illustrator 18.0.0, SVG Export Plug-In . SVG Version: 6.00 Build 0)  -->
<!DOCTYPE svg PUBLIC "-//W3C//DTD SVG 1.1//EN" "http://www.w3.org/Graphics/SVG/1.1/DTD/svg11.dtd">
<svg version="1.1" id="Capa_1" xmlns="http://www.w3.org/2000/svg" xmlns:xlink="http://www.w3.org/1999/xlink" x="0px" y="0px"
	 viewBox="0 0 462.812 462.812" style="enable-background:new 0 0 462.812 462.812;" xml:space="preserve">
<g>
	<path d="M462.49,212.744c0.019-0.055,0.033-0.11,0.05-0.165c0.052-0.168,0.096-0.337,0.133-0.508
		c0.014-0.068,0.029-0.135,0.041-0.203c0.035-0.193,0.06-0.388,0.076-0.584c0.003-0.033,0.008-0.065,0.01-0.098
		c0.015-0.235,0.014-0.471,0.002-0.707c-0.001-0.013,0.001-0.025,0-0.037c-0.037-0.616-1.063-15.264-13.152-30.302
		c-10.834-13.476-33.083-30.031-77.556-32.372c-0.046-0.002-0.093-0.004-0.139-0.006c-32.647-0.958-66.527,1.506-73.615,2.063
		c-14.009-5.126-127.926-46.048-183.195-41.875c-26.353,1.989-53.91,17.497-77.596,43.667
		C19.18,171.913,4.573,197.649,2.026,214.202c-4.761,30.95-3.404,46.77,29.553,68.363c11.519,7.546,25.1,10.351,38.714,10.35
		c28.347-0.002,56.815-12.165,66.958-19.006c21.074-14.215,30.123-11.67,32.445-10.517c2.148,5.112,4.263,10.717,6.103,16.614
		c6.846,21.939,7.537,39.908,2.053,53.407c-1.127,2.772-0.037,5.951,2.553,7.451c0.667,0.387,16.637,9.507,41.46,12.993
		c5.562,0.781,11.842,1.303,18.701,1.303c21.328,0,48.229-5.049,76.324-23.048c1.828-1.171,2.881-3.238,2.753-5.404
		c-0.045-0.778-1.208-19.327-8.882-43.447c-1.706-5.362-2.572-11.452-2.911-17.595c52.065-2.46,135.403-12.68,154.375-52.264
		l0-0.001C462.327,213.187,462.414,212.967,462.49,212.744z M46.446,159.67c29.161-32.219,56.125-38.736,69.602-39.753
		c42.275-3.192,124.543,22.746,161.105,35.199c10.086,3.435,20.007,7.308,29.756,11.606c11.928,5.259,27.737,12.227,27.737,12.227
		c0.524,0.231,1.072,0.34,1.61,0.34c1.655,0,3.228-1.034,3.801-2.745c0.664-1.985-0.426-4.142-2.342-4.985l-24.331-10.713
		c14.255-0.82,36.47-1.723,58.151-1.09c64.494,3.418,76.599,37.602,78.812,48.296c-4.156,2.878-8.45,5.479-12.871,7.82
		c-3.381-7.324-8.867-15.339-9.663-16.489c-1.259-1.817-3.752-2.27-5.565-1.012c-1.816,1.257-2.27,3.749-1.013,5.565
		c1.977,2.857,6.477,9.839,9.061,15.45c-15.547,7.005-32.61,10.886-51.086,11.625c-3.611-9.405-12.89-19.877-14.148-21.269
		c-1.533-1.7-4.192-1.775-5.823-0.123c-1.512,1.531-1.416,4.032,0.02,5.634c3.533,3.938,8.489,10.412,11.273,15.878
		c-3.333-0.041-6.71-0.181-10.13-0.418c-4.49-17.871-24.568-33.159-25.507-33.865c-1.763-1.327-4.268-0.973-5.599,0.791
		c-1.328,1.764-0.976,4.271,0.788,5.601c0.192,0.146,16.655,12.708,21.725,26.682c-3.367-0.385-6.769-0.85-10.214-1.418
		c-36.958-6.088-70.611-21.354-90.719-30.476c-6.717-3.047-12.022-5.454-15.92-6.857c-12.785-4.603-46.843-14.666-84.231-19.808
		c-25.574-3.518-47.644-4.125-66.063-1.849c2.502-17.28,14.846-31.127,15.055-31.358c1.487-1.632,1.37-4.161-0.262-5.649
		c-1.63-1.487-4.161-1.373-5.65,0.26c-0.677,0.742-15.338,17.068-17.351,37.996c-11.451,2.093-21.295,5.446-29.469,10.067
		c-13.06,7.382-22.464,15.106-29.224,22.574C22.957,190.921,32.865,174.675,46.446,159.67z M309.732,233.482
		c5.441,1.552,11.037,2.986,16.763,4.247c-5.888,1.738-12.523,2.715-17.745,3.204C309.067,238.1,309.413,235.58,309.732,233.482z
		 M130.54,263.96c-14.789,9.976-63.983,27.174-92.385,8.567c-15.474-10.139-22.484-18.123-25.038-27.41c0,0,0-0.001,0-0.001
		c-0.014-0.07-1.271-7.126,2.82-17.096c5.544-13.508,18.321-26.215,36.951-36.745c19.684-11.125,49.261-12.676,78.963-10.03
		l14.103,11.305c0.173,1.85,0.375,3.808,0.611,5.843c-15.258-4.833-48.308-14.098-71.688-12.02c-2.2,0.197-3.825,2.14-3.629,4.34
		c0.196,2.2,2.125,3.822,4.34,3.628c23.735-2.13,59.777,8.789,72.167,12.855c0.244,1.569,0.509,3.15,0.797,4.73
		c-17.169,0.383-64.269,2.634-118.903,15.439c-2.15,0.504-3.485,2.656-2.981,4.807c0.433,1.844,2.075,3.088,3.891,3.088
		c0.303,0,0.609-0.035,0.917-0.106c55.718-13.059,103.42-14.989,118.743-15.261c0.235,0.979,0.482,1.947,0.738,2.902
		c-7.427,0.901-20.16,2.721-34.731,5.989c-30.644,6.873-53.449,16.452-67.782,28.473c-1.692,1.42-1.914,3.943-0.494,5.635
		c0.791,0.943,1.925,1.43,3.066,1.43c0.907,0,1.819-0.307,2.568-0.935c27.046-22.683,82.788-30.808,99.848-32.818
		c0.209,0.55,0.422,1.092,0.641,1.621c-13.156,3.391-41.247,12.365-55.567,29.908c-1.397,1.711-1.143,4.231,0.569,5.628
		c0.743,0.606,1.638,0.901,2.527,0.901c1.159,0,2.311-0.502,3.101-1.471c13.396-16.412,41.87-24.848,53.17-27.653
		c1.426,2.464,3.521,6.236,5.891,10.979C154.489,250.825,143.321,255.34,130.54,263.96z M224.038,342.043
		c-15.424-2.103-27.224-6.668-33.227-9.392c11.581-39.219-17.574-90.897-23.785-101.249c-6.034-10.057-8.752-33.127-9.695-46.953
		c32.533,5.192,61.671,13.732,73.56,18.012c3.443,1.24,8.556,3.559,15.027,6.494c12.822,5.817,30.986,14.05,52.209,20.977
		c-1.82,11.144-5.02,37.428,1.198,56.968c5.317,16.713,7.325,30.771,8.014,37.029C281.058,339.904,253.052,345.996,224.038,342.043z
		 M307.778,253.655c0.06-1.58,0.145-3.13,0.246-4.642c2.862-0.233,6.564-0.629,10.572-1.305c9.378-1.583,16.625-4.05,21.651-7.347
		c10.646,1.721,21.614,2.747,32.716,2.747c7.281,0,14.619-0.442,21.959-1.411c-2.527,0.668-5.12,1.314-7.797,1.932
		C359.71,249.962,329.85,252.588,307.778,253.655z"/>
	<path d="M257.876,235.083c0.568-2.135-0.701-4.326-2.835-4.895c-2.14-0.572-4.326,0.7-4.896,2.834
		c-0.539,2.022-13.109,49.843-4.816,78.041c0.513,1.743,2.107,2.873,3.836,2.873c0.374,0,0.754-0.053,1.131-0.164
		c2.119-0.623,3.332-2.847,2.709-4.966C245.344,282.762,257.75,235.556,257.876,235.083z"/>
	<path d="M262.538,253.132c-2.182-0.312-4.209,1.221-4.514,3.409c-0.136,0.973-3.292,23.985-0.492,37.428
		c0.394,1.888,2.057,3.185,3.912,3.185c0.27,0,0.545-0.028,0.819-0.085c2.163-0.451,3.551-2.569,3.101-4.731
		c-2.517-12.08,0.553-34.467,0.584-34.691C266.253,255.458,264.726,253.437,262.538,253.132z"/>
	<path d="M177.992,207.324c-1.329-1.764-3.839-2.114-5.602-0.786c-1.764,1.33-2.115,3.838-0.785,5.602
		c0.241,0.321,24.274,32.531,31.554,71.521c0.358,1.924,2.039,3.267,3.927,3.267c0.244,0,0.491-0.022,0.739-0.068
		c2.171-0.405,3.604-2.495,3.197-4.666C203.403,241.374,179.026,208.695,177.992,207.324z"/>
</g>
<g>
</g>
<g>
</g>
<g>
</g>
<g>
</g>
<g>
</g>
<g>
</g>
<g>
</g>
<g>
</g>
<g>
</g>
<g>
</g>
<g>
</g>
<g>
</g>
<g>
</g>
<g>
</g>
<g>
</g>
</svg>
