<?xml version="1.0" encoding="iso-8859-1"?>
<!-- Generator: Adobe Illustrator 18.0.0, SVG Export Plug-In . SVG Version: 6.00 Build 0)  -->
<!DOCTYPE svg PUBLIC "-//W3C//DTD SVG 1.1//EN" "http://www.w3.org/Graphics/SVG/1.1/DTD/svg11.dtd">
<svg version="1.1" id="Capa_1" xmlns="http://www.w3.org/2000/svg" xmlns:xlink="http://www.w3.org/1999/xlink" x="0px" y="0px"
	 viewBox="0 0 438.001 438.001" style="enable-background:new 0 0 438.001 438.001;" xml:space="preserve">
<path d="M437.306,125.87c-0.598-1.132-15.071-28.035-52.014-55.041c-21.557-15.758-46.374-28.306-73.764-37.294
	C277.434,22.346,239.238,16.673,198,16.673c-41.391,0-77.52,6.251-107.383,18.579c-24.156,9.972-44.293,23.913-59.854,41.437
	c-26.688,30.057-30.568,60.005-30.72,61.265c-0.391,3.239,1.878,6.197,5.108,6.659c0.815,0.116,80.624,11.416,166.977,15.289
	c-0.729,9.553-1.63,21.282-2.651,34.358l-21.941,15.514c-1.792,1.267-2.75,3.412-2.496,5.591c0.253,2.18,1.677,4.048,3.712,4.871
	c0.516,0.209,6.783,2.685,18.266,5.19c-8.194,102.876-14.181,166.361-16.885,178.991c-0.625,2.923,0.996,5.86,3.802,6.889
	c15.496,5.682,42.62,9.604,69.103,9.991c1.328,0.02,2.734,0.031,4.21,0.031c18.264,0,46.835-1.751,61.18-11.73
	c2.137-1.486,3.071-4.181,2.313-6.672c-6.905-22.693-25.079-97.342-28.196-174.759c5.792-0.72,11.619-1.569,17.477-2.582
	c2.158-0.373,3.941-1.892,4.653-3.962c0.711-2.071,0.238-4.365-1.235-5.986c-7.688-8.457-16.849-15.693-21.258-19
	c0.218-12.574,0.915-24.669,2.082-36.203c107.823-4.529,167.229-25.215,169.743-26.107c1.642-0.583,2.95-1.851,3.583-3.475
	S438.12,127.411,437.306,125.87z M39.737,84.657c14.341-16.151,33-29.042,55.459-38.313C123.6,34.618,158.189,28.673,198,28.673
	c89.931,0,147.317,27.96,179.622,51.415c21.235,15.418,35.767,31.907,43.614,42.848c-28.269,0.694-59.347,1.443-91.391,2.207
	c-1.7-18.453-12.759-40.269-13.283-41.293c-1.006-1.965-3.414-2.742-5.382-1.739c-1.967,1.006-2.745,3.416-1.74,5.382
	c0.12,0.234,10.689,21.097,12.394,37.84c-2.797,0.067-5.601,0.133-8.409,0.2c-0.173-11.488-4.439-23.597-4.656-24.206
	c-0.744-2.081-3.032-3.165-5.112-2.422c-2.081,0.743-3.165,3.031-2.423,5.112c0.049,0.135,4.09,11.592,4.207,21.706
	c-89.926,2.132-183.682,4.296-241.845,5.631c0.762-4.83,2.529-11.677,6.639-17.329c1.299-1.787,0.904-4.288-0.882-5.587
	c-1.785-1.299-4.288-0.904-5.587,0.882c-5.458,7.504-7.51,16.454-8.281,22.22c-19.238,0.441-33.832,0.774-42.063,0.962
	C16.015,122.67,22.838,103.689,39.737,84.657z M250.228,194.292c-5.669,0.581-15.725,1.381-28.124,1.381
	c-14.296,0-27.878-1.041-40.457-3.097c1.869-23.987,3.315-43.134,3.982-52.037c22.381-0.521,45.717-1.066,69.298-1.62
	C252.22,156.027,250.654,174.606,250.228,194.292z M205.153,207.179l-1.362,11.096c-5.314-0.334-10.234-0.803-14.76-1.356
	l4.526-10.672C197.356,206.64,201.224,206.949,205.153,207.179z M213.17,207.525c2.951,0.089,5.922,0.148,8.933,0.148
	c4.357,0,8.416-0.095,12.13-0.243l2.518,10.981c-5.234,0.266-10.416,0.408-15.526,0.408c-3.247,0-6.387-0.055-9.421-0.155
	L213.17,207.525z M95.407,142.626c23.246-0.535,49.806-1.149,78.167-1.808c-0.148,1.976-0.328,4.358-0.536,7.112
	C145.74,146.713,119.091,144.747,95.407,142.626z M176.637,203.894c2.834,0.505,5.728,0.946,8.656,1.35l-4.466,10.531
	c-6.579-1.046-12.053-2.222-16.336-3.293L176.637,203.894z M277.921,401.853c-23.432,11.327-85.802,8.376-115.124-0.263
	c3.826-25.383,10.649-105.78,16.083-173.942c11.205,1.777,25.39,3.171,42.345,3.171c9.59,0,19.402-0.457,29.363-1.355
	C253.663,303.283,270.155,374.555,277.921,401.853z M244.84,217.896l-2.498-10.896c5.517-0.37,9.715-0.813,12.177-1.106
	c2.429,1.811,6.966,5.316,11.813,9.686C259.096,216.591,251.925,217.357,244.84,217.896z M267.143,138.631
	c37.142-0.874,74.586-1.764,109.582-2.608c-27.339,5.132-64.731,10.285-111.052,12.335
	C266.119,145.057,266.616,141.823,267.143,138.631z"/>
<g>
</g>
<g>
</g>
<g>
</g>
<g>
</g>
<g>
</g>
<g>
</g>
<g>
</g>
<g>
</g>
<g>
</g>
<g>
</g>
<g>
</g>
<g>
</g>
<g>
</g>
<g>
</g>
<g>
</g>
</svg>
