<?xml version="1.0" encoding="iso-8859-1"?>
<!-- Generator: Adobe Illustrator 18.0.0, SVG Export Plug-In . SVG Version: 6.00 Build 0)  -->
<!DOCTYPE svg PUBLIC "-//W3C//DTD SVG 1.1//EN" "http://www.w3.org/Graphics/SVG/1.1/DTD/svg11.dtd">
<svg version="1.1" id="Capa_1" xmlns="http://www.w3.org/2000/svg" xmlns:xlink="http://www.w3.org/1999/xlink" x="0px" y="0px"
	 viewBox="0 0 474.733 474.733" style="enable-background:new 0 0 474.733 474.733;" xml:space="preserve">
<g>
	<path d="M346.249,35.276C317.103,12.528,278.435,0,237.367,0c-41.068,0-79.736,12.528-108.882,35.276
		C98.9,58.368,82.606,89.206,82.606,122.11c0,6.914,0.735,13.838,2.184,20.581c0.456,2.12,2.02,3.829,4.09,4.47
		c29.398,9.11,62.185,15.337,96.682,18.487l-22.293,51.174c-0.925,2.124-0.545,4.59,0.976,6.337
		c0.579,0.664,8.994,10.092,25.815,17.596v79.337c0,28.015-4.927,56.976-14.644,86.078c-1.58,4.724-2.38,9.647-2.38,14.632
		c0,29.737,28.827,53.93,64.26,53.93c35.434,0,64.261-24.193,64.261-53.93c0-4.982-0.801-9.905-2.38-14.63
		c-9.718-29.103-14.645-58.064-14.645-86.08v-77.694c18.353-6.166,27.922-13.899,28.558-14.425c2.022-1.674,2.723-4.468,1.727-6.897
		l-22.752-55.523c33.323-3.104,65.052-9.079,93.615-17.752c2.072-0.629,3.644-2.326,4.114-4.439
		c1.548-6.965,2.333-14.116,2.333-21.252C392.126,89.206,375.833,58.368,346.249,35.276z M287.795,409.975
		c1.169,3.498,1.762,7.141,1.762,10.828c0,23.12-23.444,41.93-52.261,41.93s-52.26-18.81-52.26-41.93
		c0-3.689,0.592-7.332,1.762-10.83c10.127-30.332,15.263-60.572,15.263-89.88V245.21c9.456,2.859,20.726,4.822,33.886,4.821
		c0.776,0,1.561-0.007,2.35-0.021c13.138-0.231,24.543-1.887,34.236-4.19v74.272C272.533,349.403,277.667,379.643,287.795,409.975z
		 M301.898,221.197c-1.613,1.026-3.785,2.304-6.495,3.69l-7.178-19.45c-0.766-2.073-3.068-3.133-5.138-2.368
		c-2.072,0.765-3.133,3.065-2.368,5.137l7.396,20.04c-2.5,1.038-5.263,2.077-8.302,3.071l-8.796-38.608
		c-0.491-2.155-2.641-3.503-4.789-3.011c-2.154,0.491-3.502,2.634-3.012,4.789l8.901,39.07c-6.166,1.588-13.181,2.91-21.044,3.696
		l-1.451-24.88c-0.128-2.206-2.008-3.889-4.227-3.76c-2.205,0.128-3.889,2.021-3.76,4.226l1.458,25.001
		c-1.641,0.079-3.304,0.142-5.009,0.172c-3.234,0.059-6.338-0.015-9.319-0.197l4.31-38.818c0.244-2.196-1.338-4.173-3.534-4.417
		c-2.196-0.246-4.173,1.339-4.417,3.534l-4.321,38.918c-5.797-0.784-11.045-1.979-15.748-3.422l8.014-24.73
		c0.681-2.102-0.471-4.357-2.572-5.038c-2.101-0.681-4.357,0.471-5.038,2.572l-7.943,24.513c-4.571-1.861-8.476-3.896-11.73-5.87
		l13.862-28.902c0.956-1.992,0.115-4.381-1.876-5.336c-1.994-0.956-4.381-0.115-5.336,1.876l-13.33,27.793
		c-1.275-0.986-2.338-1.885-3.191-2.648l22.289-51.166c13.184,0.905,26.584,1.366,40.113,1.366c13.898,0,27.661-0.498,41.203-1.454
		L301.898,221.197z M378.766,137.342c-41.729,12.24-90.195,18.698-140.45,18.698c-51.103,0-100.267-6.667-142.458-19.297
		c-0.832-4.823-1.252-9.73-1.252-14.632C94.606,61.396,158.648,12,237.367,12c78.718,0,142.76,49.396,142.76,110.11
		C380.126,127.211,379.669,132.319,378.766,137.342z"/>
	<path d="M224.968,62.326c-8.13,0-14.744,6.614-14.744,14.744s6.614,14.744,14.744,14.744s14.744-6.614,14.744-14.744
		S233.098,62.326,224.968,62.326z M224.968,83.813c-3.718,0-6.744-3.025-6.744-6.744s3.025-6.744,6.744-6.744
		s6.744,3.025,6.744,6.744S228.686,83.813,224.968,83.813z"/>
	<path d="M135.942,71.425c-0.62-0.104-1.253-0.157-1.881-0.157c-6.43,0-11.986,5.287-13.209,12.571
		c-0.628,3.741-0.001,7.497,1.766,10.575c1.887,3.287,4.962,5.507,8.438,6.091c0.62,0.104,1.252,0.157,1.88,0.157c0,0,0,0,0,0
		c6.43,0,11.985-5.287,13.209-12.572c0.628-3.741,0.001-7.497-1.766-10.575C142.494,74.229,139.418,72.009,135.942,71.425z
		 M138.256,86.764c-0.598,3.56-3.288,6.29-5.875,5.852c-1.514-0.254-2.42-1.478-2.826-2.184c-0.835-1.455-1.132-3.375-0.814-5.266
		c0.555-3.307,2.892-5.897,5.32-5.897c0.185,0,0.372,0.016,0.555,0.046c1.514,0.254,2.42,1.478,2.826,2.184
		C138.278,82.954,138.574,84.873,138.256,86.764z"/>
	<path d="M290.86,90.467c-8.13,0-14.743,6.614-14.743,14.744s6.613,14.744,14.743,14.744s14.744-6.614,14.744-14.744
		S298.99,90.467,290.86,90.467z M290.86,111.954c-3.718,0-6.743-3.025-6.743-6.744s3.025-6.744,6.743-6.744
		c3.719,0,6.744,3.025,6.744,6.744S294.579,111.954,290.86,111.954z"/>
	<path d="M298.993,45.686c0-6.751-6.614-12.244-14.744-12.244s-14.744,5.493-14.744,12.244s6.614,12.244,14.744,12.244
		S298.993,52.437,298.993,45.686z M277.504,45.686c0-2.007,2.77-4.244,6.744-4.244s6.744,2.236,6.744,4.244s-2.77,4.244-6.744,4.244
		S277.504,47.693,277.504,45.686z"/>
	<path d="M217.424,49.461c8.13,0,14.744-5.493,14.744-12.244c0-6.751-6.614-12.244-14.744-12.244s-14.744,5.493-14.744,12.244
		C202.68,43.968,209.294,49.461,217.424,49.461z M217.424,32.973c3.974,0,6.744,2.236,6.744,4.244s-2.77,4.244-6.744,4.244
		c-3.975,0-6.744-2.237-6.744-4.244S213.449,32.973,217.424,32.973z"/>
	<path d="M211.745,108.607c-7.674,0-13.917,6.243-13.917,13.917s6.243,13.917,13.917,13.917s13.917-6.243,13.917-13.917
		S219.419,108.607,211.745,108.607z M211.745,128.442c-3.263,0-5.917-2.655-5.917-5.917s2.655-5.917,5.917-5.917
		s5.917,2.655,5.917,5.917S215.007,128.442,211.745,128.442z"/>
	<path d="M180.543,61.786c-2.964-1.481-6.568-0.28-8.05,2.684l-3.306,6.612c-1.482,2.964-0.28,6.568,2.684,8.05
		c0.861,0.431,1.777,0.635,2.678,0.635c2.201,0,4.32-1.216,5.372-3.318l3.306-6.612C184.709,66.872,183.507,63.268,180.543,61.786z"
		/>
	<path d="M346.66,117.158c-2.969-1.482-6.568-0.28-8.05,2.684l-3.306,6.612c-1.482,2.964-0.281,6.568,2.683,8.05
		c0.862,0.431,1.777,0.635,2.679,0.635c2.201,0,4.32-1.216,5.371-3.318l3.306-6.612C350.825,122.244,349.624,118.64,346.66,117.158z
		"/>
	<path d="M259.882,17.984c-2.965-1.482-6.568-0.279-8.05,2.684l-3.306,6.611c-1.482,2.964-0.281,6.568,2.683,8.05
		c0.861,0.431,1.777,0.635,2.679,0.635c2.201,0,4.32-1.216,5.371-3.318l3.306-6.611C264.047,23.07,262.846,19.466,259.882,17.984z"
		/>
	<path d="M254.924,97.323l-4.959-2.479c-2.966-1.482-6.569-0.28-8.05,2.684c-1.482,2.964-0.281,6.568,2.683,8.05l4.959,2.479
		c0.861,0.431,1.777,0.635,2.679,0.635c2.201,0,4.32-1.216,5.371-3.318C259.089,102.409,257.888,98.805,254.924,97.323z"/>
	<path d="M165.668,117.158l-4.958-2.479c-2.965-1.483-6.568-0.281-8.05,2.683s-0.281,6.568,2.683,8.05l4.958,2.479
		c0.862,0.431,1.777,0.635,2.679,0.635c2.201,0,4.32-1.216,5.372-3.318C169.833,122.244,168.632,118.64,165.668,117.158z"/>
	<path d="M330.451,72.98c-1.345-3.029-4.892-4.392-7.919-3.046c-3.028,1.346-4.393,4.892-3.046,7.919l3.306,7.438
		c0.993,2.237,3.187,3.565,5.485,3.565c0.814,0,1.642-0.167,2.434-0.519c3.028-1.346,4.393-4.892,3.046-7.92L330.451,72.98z"/>
</g>
<g>
</g>
<g>
</g>
<g>
</g>
<g>
</g>
<g>
</g>
<g>
</g>
<g>
</g>
<g>
</g>
<g>
</g>
<g>
</g>
<g>
</g>
<g>
</g>
<g>
</g>
<g>
</g>
<g>
</g>
</svg>
